<?xml version="1.0" encoding="UTF-8" standalone="no"?>
<!-- Created with Inkscape (http://www.inkscape.org/) -->
<svg
   xmlns:svg="http://www.w3.org/2000/svg"
   xmlns="http://www.w3.org/2000/svg"
   version="1.0"
   width="744.09448"
   height="332.36218"
   id="svg3633">
  <defs
     id="defs3635"><clipPath
   id="clp6">
<path
   d="M 0,842.04 L 594.96,842.04 L 594.96,0 L 0,0 L 0,842.04 z "
   id="path37998" />

</clipPath>
<clipPath
   id="clp5">
<path
   d="M -0.138,838.94 L 595.14,838.94 L 595.14,-2.945 L -0.138,-2.945 L -0.138,838.94 z "
   id="path37993" />

</clipPath>
<clipPath
   id="clp4">
<path
   d="M 0,0 L 111.08,0 L 111.08,55.357 L 0,55.357 L 0,0 z "
   id="path25050" />

</clipPath>










</defs>
  <g
     transform="translate(-1512.9611,-499.04181)"
     id="layer1">
    <g
       transform="translate(17.716532,17.653901)"
       id="g50737">
      <path
         d="M 1937.3584,784.05973 C 1860.9676,784.05973 1793.1629,759.89315 1750.7847,722.60038 C 1751.0049,722.18759 1751.2801,721.70879 1751.5002,721.34554 L 1826.9003,594.63484 C 1829.9821,589.46691 1827.5608,584.99793 1821.5065,584.99793 L 1751.0599,584.99793 C 1745.0607,584.99793 1737.5208,589.43939 1734.4386,594.60732 L 1705.4895,641.26184 C 1705.2143,638.17429 1705.0492,635.07023 1705.0492,631.93311 C 1705.0492,574.79418 1753.151,525.03009 1824.3135,499.04181 C 1760.9114,513.23025 1709.8372,544.78824 1684.3005,585.04747 L 1675.7148,584.76127 L 1622.6046,584.76127 C 1616.5503,584.76127 1609.0655,588.98261 1605.9283,594.16705 L 1514.3476,745.73223 C 1511.2104,750.88369 1513.5771,755.1215 1519.6309,755.1215 L 1591.2888,755.1215 C 1597.3426,755.1215 1604.7724,750.88369 1607.8546,745.70471 L 1666.744,646.80403 C 1669.4404,729.55698 1772.6893,796.09619 1899.7136,796.09619 C 1944.0732,796.09619 1985.5156,787.97832 2020.7942,773.91647 C 1994.9268,780.44381 1966.8033,784.05973 1937.3584,784.05973"
         style="fill:#ff061e;fill-opacity:1;fill-rule:nonzero;stroke:none"
         id="path49233" />
      <path
         d="M 1851.1711,584.97041 L 1872.7455,584.97041 L 1886.0094,623.52903 L 1886.1745,623.52903 L 1894.0997,584.97041 L 1914.7934,584.97041 L 1899.9338,655.57132 L 1878.5796,655.57132 L 1865.6459,616.01654 L 1865.4258,616.01654 L 1857.2254,655.57132 L 1836.5867,655.57132 L 1851.1711,584.97041"
         style="fill:#000000;fill-rule:nonzero;stroke:none"
         id="path49235" />
      <path
         d="M 1937.0282,642.60474 C 1944.7336,642.60474 1947.4851,631.23966 1947.4851,626.7817 C 1947.4851,620.66715 1945.889,617.19433 1940.6608,617.19433 C 1932.8457,617.19433 1930.0937,628.96665 1930.0937,634.3052 C 1930.0937,638.46045 1931.4697,642.60474 1937.0282,642.60474 z M 1942.1468,602.95636 C 1957.1715,602.95636 1967.0785,609.88548 1967.0785,625.41682 C 1967.0785,638.55952 1959.7583,656.85918 1936.1476,656.85918 C 1922.0035,656.85918 1910.5008,650.02917 1910.5008,632.81923 C 1910.5008,616.41282 1921.1779,602.95636 1942.1468,602.95636"
         style="fill:#000000;fill-rule:nonzero;stroke:none"
         id="path49237" />
      <path
         d="M 1990.1935,634.69597 C 1990.1935,638.65859 1992.5051,642.60474 1996.8532,642.60474 C 2004.7233,642.60474 2008.0807,633.12741 2008.0807,625.60941 C 2008.0807,620.46901 2005.714,617.00169 2000.7605,617.19433 C 1992.7803,617.19433 1990.1935,627.87692 1990.1935,634.69597 z M 1981.1125,584.97041 L 2000.7055,584.97041 L 1995.6423,609.2911 L 1995.8625,609.2911 C 1999.1098,605.14131 2004.6132,602.95636 2010.0621,602.95636 C 2016.9965,602.95636 2027.6736,606.72088 2027.6736,623.6226 C 2027.6736,632.72567 2023.5457,656.85918 2001.9714,656.85918 C 1996.0276,656.85918 1989.478,655.65388 1986.7265,648.93394 L 1986.5614,648.93394 L 1985.0753,655.57132 L 1966.4731,655.57132 L 1981.1125,584.97041"
         style="fill:#000000;fill-rule:nonzero;stroke:none"
         id="path49239" />
      <path
         d="M 2068.4556,624.11244 C 2068.5107,623.6226 2068.6207,622.93466 2068.6207,622.43931 C 2068.6207,618.58126 2066.144,615.52124 2061.1909,615.52124 C 2055.9623,615.52124 2052.5503,618.69134 2051.0092,624.11244 L 2068.4556,624.11244 z M 2083.8661,640.62889 C 2082.5451,644.09621 2078.6924,656.85918 2056.5677,656.85918 C 2038.3507,656.85918 2031.086,646.66643 2031.086,634.20613 C 2031.086,610.66699 2049.0828,602.95636 2061.7964,602.95636 C 2073.189,602.95636 2086.9478,609.2911 2086.9478,625.41682 C 2086.9478,628.16863 2086.8377,631.13509 2085.9571,634.3052 L 2049.358,634.3052 C 2049.358,639.74832 2051.2294,644.28884 2057.3382,644.28884 C 2061.6313,644.28884 2064.1076,642.4066 2065.0432,640.62889 L 2083.8661,640.62889"
         style="fill:#000000;fill-rule:nonzero;stroke:none"
         id="path49241" />
      <path
         d="M 2100.8171,584.97041 L 2120.4101,584.97041 L 2105.7706,655.57132 L 2086.1773,655.57132 L 2100.8171,584.97041"
         style="fill:#000000;fill-rule:nonzero;stroke:none"
         id="path49243" />
      <path
         d="M 1849.4649,694.77939 L 1861.6831,694.77939 C 1865.1506,694.77939 1869.4986,693.49703 1869.4986,689.14364 C 1869.4986,684.90032 1866.6366,684.1023 1862.7839,684.1023 L 1851.6115,684.1023 L 1849.4649,694.77939 z M 1844.0165,721.08135 L 1857.9409,721.08135 C 1861.7932,721.08135 1867.132,719.70547 1867.132,713.97614 C 1867.132,708.73116 1863.2792,707.93315 1858.7115,707.93315 L 1846.7685,707.93315 L 1844.0165,721.08135 z M 1833.8898,667.29965 L 1870.2141,667.29965 C 1885.5141,667.29965 1891.2381,672.64921 1891.2381,682.81444 C 1891.2381,691.73037 1886.835,697.55322 1878.3044,699.83724 L 1878.1943,699.83724 L 1878.1943,700.02437 C 1884.7435,701.41681 1888.8714,707.63594 1888.8714,714.16328 C 1888.8714,731.16957 1875.2773,737.90055 1859.8122,737.90055 L 1819.305,737.90055 L 1833.8898,667.29965"
         style="fill:#ff061e;fill-opacity:1;fill-rule:nonzero;stroke:none"
         id="path49245" />
      <path
         d="M 1921.1779,681.05328 L 1901.64,681.05328 L 1904.5016,667.29965 L 1924.0399,667.29965 L 1921.1779,681.05328 z M 1900.5392,686.57896 L 1920.1322,686.57896 L 1909.4551,737.90055 L 1889.8621,737.90055 L 1900.5392,686.57896"
         style="fill:#ff061e;fill-opacity:1;fill-rule:nonzero;stroke:none"
         id="path49247" />
      <path
         d="M 1946.6045,724.93944 C 1954.3099,724.93944 1957.1165,713.55785 1957.1165,709.12194 C 1957.1165,702.99634 1955.5208,699.52902 1950.2921,699.52902 C 1942.477,699.52902 1939.7251,711.30135 1939.7251,716.63443 C 1939.7251,720.78418 1941.1011,724.93944 1946.6045,724.93944 z M 1951.7782,685.2911 C 1966.8033,685.2911 1976.7099,692.20917 1976.7099,707.73501 C 1976.7099,720.89426 1969.3897,739.17741 1945.7243,739.17741 C 1931.6348,739.17741 1920.1322,732.35286 1920.1322,715.15393 C 1920.1322,698.74201 1930.8092,685.2911 1951.7782,685.2911"
         style="fill:#ff061e;fill-opacity:1;fill-rule:nonzero;stroke:none"
         id="path49249" />
      <path
         d="M 2016.6113,706.05086 C 2016.7213,703.57975 2016.3361,701.99468 2015.2353,701.00953 C 2014.2446,699.9253 2012.5934,699.52902 2010.2818,699.52902 C 2001.8063,699.52902 1999.4946,710.70147 1999.4946,715.54471 C 1999.4946,720.39341 2000.5954,724.93944 2006.2644,724.93944 C 2011.6027,724.93944 2013.7492,720.28883 2014.85,717.43245 L 2033.6174,717.43245 C 2030.2604,732.05565 2020.9038,739.17741 2006.0442,739.17741 C 1984.3048,739.17741 1979.9567,725.33017 1979.9567,715.7428 C 1979.9567,698.2412 1991.2943,685.2911 2010.8872,685.2911 C 2025.1418,685.2911 2035.7089,691.73037 2035.4337,706.05086 L 2016.6113,706.05086"
         style="fill:#ff061e;fill-opacity:1;fill-rule:nonzero;stroke:none"
         id="path49251" />
      <path
         d="M 2061.5212,727.60869 C 2068.1804,727.60869 2070.8223,722.771 2072.0332,715.15393 C 2068.8409,716.73346 2065.2083,717.13524 2061.6313,717.43245 C 2058.384,717.72966 2055.3018,719.40826 2055.3018,723.16173 C 2055.3018,726.71711 2058.384,727.60869 2061.5212,727.60869 z M 2042.5883,702.10475 C 2045.6154,688.4557 2056.1824,685.2911 2068.7308,685.2911 C 2078.0319,685.2911 2093.6625,686.48539 2093.6625,698.94015 C 2093.6625,706.93699 2087.4431,729.98078 2087.4431,733.33801 C 2087.8284,737.30063 2087.4431,735.52297 2088.2137,737.90055 L 2069.0611,737.90055 C 2068.5657,736.30447 2068.2355,734.63138 2068.3456,732.94724 L 2068.1804,732.94724 C 2064.713,737.10249 2058.1088,739.17741 2052.3301,739.17741 C 2043.5239,739.17741 2035.7089,735.32483 2035.7089,725.52831 C 2035.7089,711.99483 2045.8356,708.32938 2060.5305,707.23966 C 2066.089,706.84892 2074.8947,707.63594 2074.8947,701.30673 C 2074.8947,697.75136 2071.7029,696.87078 2068.7308,696.87078 C 2064.8231,696.87078 2062.0165,698.2412 2060.9708,702.10475 L 2042.5883,702.10475"
         style="fill:#ff061e;fill-opacity:1;fill-rule:nonzero;stroke:none"
         id="path49253" />
      <path
         d="M 2104.3947,686.57896 L 2123.3822,686.57896 L 2121.676,694.58676 L 2121.8961,694.58676 C 2125.3636,689.14364 2131.7476,685.2911 2136.8112,685.2911 C 2140.0581,685.2911 2141.9294,685.48924 2143.7457,686.08361 L 2140.0581,703.39262 C 2137.6918,702.50103 2135.05,702.10475 2132.5732,702.10475 C 2124.2628,702.10475 2120.0799,705.66013 2117.8233,716.43079 L 2113.3656,737.90055 L 2093.8277,737.90055 L 2104.3947,686.57896"
         style="fill:#ff061e;fill-opacity:1;fill-rule:nonzero;stroke:none"
         id="path49255" />
      <path
         d="M 2178.3087,706.45815 C 2178.4188,705.9573 2178.5289,705.26935 2178.5289,704.76854 C 2178.5289,700.91596 2176.0521,697.85043 2171.0986,697.85043 C 2165.8704,697.85043 2162.4029,701.00953 2160.9169,706.45815 L 2178.3087,706.45815 z M 2193.7187,722.96914 C 2192.4533,726.4254 2188.6006,739.17741 2166.4758,739.17741 C 2148.2589,739.17741 2140.9387,728.99562 2140.9387,716.54087 C 2140.9387,693.00723 2158.9359,685.2911 2171.7041,685.2911 C 2183.0416,685.2911 2196.8009,691.6203 2196.8009,707.73501 C 2196.8009,710.50883 2196.6908,713.47529 2195.8102,716.63443 L 2159.2111,716.63443 C 2159.2111,722.0665 2161.1371,726.62354 2167.2464,726.62354 C 2171.4839,726.62354 2173.9607,724.7413 2174.9514,722.96914 L 2193.7187,722.96914"
         style="fill:#ff061e;fill-opacity:1;fill-rule:nonzero;stroke:none"
         id="path49257" />
      <path
         d="M 2213.4772,681.00925 L 2217.4396,670.51379 L 2221.6225,670.51379 L 2221.6225,685.32962 L 2218.9256,685.32962 L 2218.9256,673.74989 L 2218.8155,673.74989 L 2214.4124,685.32962 L 2212.3764,685.32962 L 2207.9733,673.74989 L 2207.9183,673.74989 L 2207.9183,685.32962 L 2205.2214,685.32962 L 2205.2214,670.51379 L 2209.4043,670.51379 L 2213.4772,681.00925 z M 2202.1947,672.85281 L 2197.6265,672.85281 L 2197.6265,685.32962 L 2194.7645,685.32962 L 2194.7645,672.85281 L 2190.2517,672.85281 L 2190.2517,670.51379 L 2202.1947,670.51379 L 2202.1947,672.85281"
         style="fill:#ff061e;fill-opacity:1;fill-rule:nonzero;stroke:none"
         id="path49259" />
    </g>
  </g>
</svg>
